<svg width="246" height="101" viewBox="0 0 246 101" fill="none" xmlns="http://www.w3.org/2000/svg">
<path fill-rule="evenodd" clip-rule="evenodd" d="M43.056 17.0029C56.5968 17.0029 67.5775 27.8711 67.5775 41.2853C67.5775 54.694 56.6023 65.5676 43.056 65.5676C29.5097 65.5676 18.5345 54.6995 18.5345 41.2853C18.5345 27.8765 29.5152 17.0029 43.056 17.0029ZM29.9537 99.0787V67.6414C24.7841 65.117 20.4642 61.1433 17.5312 56.2575V99.0787H29.9537ZM43.056 28.2402C35.7812 28.2402 29.8879 34.0814 29.8879 41.2798C29.8879 48.4837 35.7867 54.3195 43.056 54.3195C50.3308 54.3195 56.224 48.4782 56.224 41.2798C56.224 34.0814 50.3308 28.2402 43.056 28.2402Z" fill="white" stroke="white" style="fill:white;fill-opacity:1;stroke:white;stroke-opacity:1;" stroke-width="0.523292" stroke-miterlimit="22.9256"/>
<path fill-rule="evenodd" clip-rule="evenodd" d="M73.2188 27.8711H80.2852V53.0003H73.2188V27.8711ZM91.2056 40.6936L84.4736 39.9933C84.7257 38.8315 85.093 37.9087 85.57 37.2409C86.0469 36.5732 86.7322 35.9923 87.6367 35.5038C88.2781 35.1455 89.1717 34.8741 90.301 34.6786C91.4304 34.4832 92.6529 34.3855 93.9686 34.3855C96.0792 34.3855 97.7786 34.5049 99.056 34.7383C100.339 34.9718 101.408 35.4658 102.258 36.2095C102.861 36.7252 103.332 37.4527 103.683 38.3918C104.023 39.3418 104.198 40.2321 104.198 41.0953V49.1351C104.198 49.9874 104.259 50.6606 104.363 51.1491C104.472 51.6323 104.714 52.2566 105.086 53.0112H98.4749C98.2117 52.5443 98.0363 52.186 97.9541 51.9417C97.8718 51.6974 97.7951 51.312 97.7129 50.7854C96.7919 51.6703 95.8709 52.2946 94.9608 52.6692C93.7164 53.174 92.2691 53.4237 90.619 53.4237C88.4261 53.4237 86.7596 52.9189 85.6193 51.9146C84.4845 50.9157 83.9199 49.6725 83.9199 48.2014C83.9199 46.8171 84.3255 45.6771 85.1478 44.7922C85.9702 43.8965 87.4778 43.2342 89.6816 42.8053C92.3294 42.2787 94.0399 41.9096 94.8293 41.6979C95.6077 41.4861 96.441 41.2039 97.3182 40.8673C97.3182 40.0096 97.1427 39.4124 96.7864 39.065C96.4246 38.7284 95.7996 38.5492 94.8951 38.5492C93.7438 38.5492 92.8776 38.7338 92.302 39.0975C91.847 39.369 91.4797 39.9064 91.2056 40.6936ZM97.3127 44.3579C96.3423 44.7053 95.3336 45.0093 94.2865 45.2699C92.8557 45.6445 91.9457 46.0191 91.5674 46.3828C91.1727 46.7628 90.9753 47.1917 90.9753 47.6694C90.9753 48.2177 91.1727 48.6628 91.5564 49.0157C91.9457 49.3631 92.5158 49.5368 93.2669 49.5368C94.0508 49.5368 94.7799 49.3468 95.4597 48.9777C96.134 48.5977 96.6109 48.1362 96.896 47.5988C97.1811 47.0559 97.3182 46.3448 97.3182 45.4816V44.3579H97.3127ZM107.18 47.9625L114.176 47.3057C114.466 48.1308 114.866 48.7225 115.387 49.0754C115.908 49.4337 116.599 49.6074 117.465 49.6074C118.408 49.6074 119.142 49.4065 119.663 49.0048C120.063 48.7117 120.266 48.3371 120.266 47.892C120.266 47.3871 119.998 47.0017 119.477 46.7302C119.093 46.5348 118.084 46.2959 116.445 46.0082C114 45.5793 112.295 45.1939 111.347 44.8302C110.393 44.4665 109.593 43.8585 108.94 43.0062C108.282 42.1539 107.959 41.1767 107.959 40.0747C107.959 38.875 108.315 37.8381 109.017 36.9749C109.719 36.1009 110.689 35.4549 111.923 35.0261C113.156 34.5972 114.812 34.38 116.889 34.38C119.082 34.38 120.699 34.5483 121.746 34.8795C122.794 35.2106 123.66 35.7264 124.356 36.4266C125.052 37.1215 125.633 38.0661 126.099 39.255L119.417 39.9118C119.241 39.3255 118.956 38.9021 118.55 38.6252C117.997 38.2561 117.328 38.077 116.544 38.077C115.755 38.077 115.168 38.2181 114.806 38.5004C114.439 38.7827 114.263 39.1193 114.263 39.521C114.263 39.9716 114.494 40.3027 114.954 40.5307C115.415 40.7587 116.418 40.965 117.969 41.1496C120.31 41.4156 122.053 41.7739 123.194 42.2462C124.34 42.713 125.217 43.3807 125.82 44.2548C126.428 45.1233 126.73 46.0733 126.73 47.1157C126.73 48.1688 126.412 49.1948 125.765 50.1883C125.129 51.1817 124.115 51.9743 122.739 52.5606C121.357 53.1523 119.477 53.4455 117.103 53.4455C113.748 53.4455 111.352 52.9732 109.927 52.0232C108.507 51.0569 107.586 49.7051 107.18 47.9625ZM138.588 27.8711V34.7981H142.463V39.8901H138.588V46.3502C138.588 47.1265 138.664 47.6422 138.812 47.8974C139.043 48.2828 139.443 48.4837 140.024 48.4837C140.545 48.4837 141.268 48.3317 142.206 48.0331L142.727 52.8537C140.983 53.2283 139.361 53.4129 137.847 53.4129C136.093 53.4129 134.799 53.1903 133.972 52.7452C133.138 52.3 132.524 51.6214 132.13 50.7148C131.729 49.8083 131.532 48.3317 131.532 46.2959V39.8901H128.934V34.7981H131.532V31.4486L138.588 27.8711ZM145.873 34.7981H152.452V37.4581C153.406 36.3452 154.354 35.5635 155.319 35.0858C156.284 34.6189 157.446 34.3855 158.811 34.3855C160.275 34.3855 161.437 34.6406 162.287 35.1563C163.142 35.6721 163.838 36.4375 164.386 37.4581C165.494 36.2692 166.502 35.4549 167.418 35.0315C168.328 34.6026 169.452 34.3855 170.79 34.3855C172.763 34.3855 174.304 34.9663 175.411 36.1281C176.524 37.2844 177.072 39.103 177.072 41.5676V53.0003H170.011V42.6316C170.011 41.8064 169.852 41.193 169.529 40.7967C169.057 40.1724 168.465 39.8521 167.763 39.8521C166.936 39.8521 166.261 40.1507 165.757 40.7424C165.247 41.3396 165 42.295 165 43.6087V53.0003H157.934V42.9736C157.934 42.1702 157.885 41.6327 157.797 41.345C157.643 40.889 157.386 40.5198 157.018 40.2376C156.646 39.9553 156.213 39.8141 155.719 39.8141C154.908 39.8141 154.25 40.1181 153.729 40.7207C153.208 41.3287 152.951 42.3222 152.951 43.7065V53.0003H145.89V34.7981H145.873ZM187.691 40.6936L180.959 39.9933C181.211 38.8315 181.578 37.9087 182.055 37.2409C182.532 36.5732 183.217 35.9923 184.122 35.5038C184.763 35.1455 185.657 34.8741 186.786 34.6786C187.916 34.4832 189.138 34.3855 190.454 34.3855C192.564 34.3855 194.264 34.5049 195.541 34.7383C196.824 34.9718 197.893 35.4658 198.743 36.2095C199.346 36.7252 199.817 37.4527 200.168 38.3918C200.514 39.3418 200.683 40.2321 200.683 41.0953V49.1351C200.683 49.9874 200.744 50.6606 200.848 51.1491C200.958 51.6323 201.199 52.2566 201.572 53.0112H194.96C194.697 52.5443 194.522 52.186 194.439 51.9417C194.357 51.6974 194.28 51.312 194.198 50.7854C193.277 51.6703 192.356 52.2946 191.446 52.6692C190.202 53.174 188.754 53.4237 187.104 53.4237C184.911 53.4237 183.245 52.9189 182.105 51.9146C180.97 50.9157 180.405 49.6725 180.405 48.2014C180.405 46.8171 180.811 45.6771 181.633 44.7922C182.455 43.8965 183.963 43.2342 186.167 42.8053C188.815 42.2787 190.525 41.9096 191.315 41.6979C192.093 41.4861 192.926 41.2039 193.803 40.8673C193.803 40.0096 193.628 39.4124 193.272 39.065C192.91 38.7284 192.285 38.5492 191.38 38.5492C190.229 38.5492 189.363 38.7338 188.787 39.0975C188.338 39.369 187.97 39.9064 187.691 40.6936ZM193.803 44.3579C192.833 44.7053 191.824 45.0093 190.777 45.2699C189.346 45.6445 188.436 46.0191 188.058 46.3828C187.663 46.7628 187.466 47.1917 187.466 47.6694C187.466 48.2177 187.663 48.6628 188.047 49.0157C188.436 49.3631 189.007 49.5368 189.758 49.5368C190.542 49.5368 191.271 49.3468 191.95 48.9777C192.625 48.5977 193.102 48.1362 193.387 47.5988C193.672 47.0559 193.809 46.3448 193.809 45.4816V44.3579H193.803ZM203.671 47.9625L210.666 47.3057C210.957 48.1308 211.357 48.7225 211.878 49.0754C212.399 49.4337 213.09 49.6074 213.956 49.6074C214.899 49.6074 215.633 49.4065 216.154 49.0048C216.554 48.7117 216.757 48.3371 216.757 47.892C216.757 47.3871 216.488 47.0017 215.968 46.7302C215.584 46.5348 214.575 46.2959 212.936 46.0082C210.491 45.5793 208.786 45.1939 207.838 44.8302C206.884 44.4665 206.083 43.8585 205.431 43.0062C204.773 42.1539 204.45 41.1767 204.45 40.0747C204.45 38.875 204.806 37.8381 205.508 36.9749C206.209 36.1009 207.18 35.4549 208.413 35.0261C209.647 34.5972 211.302 34.38 213.38 34.38C215.573 34.38 217.19 34.5483 218.237 34.8795C219.284 35.2106 220.15 35.7264 220.847 36.4266C221.543 37.1215 222.124 38.0661 222.59 39.255L215.907 39.9118C215.732 39.3255 215.447 38.9021 215.041 38.6252C214.487 38.2561 213.819 38.077 213.035 38.077C212.245 38.077 211.659 38.2181 211.297 38.5004C210.93 38.7827 210.754 39.1193 210.754 39.521C210.754 39.9716 210.984 40.3027 211.445 40.5307C211.905 40.7587 212.909 40.965 214.46 41.1496C216.801 41.4156 218.544 41.7739 219.685 42.2462C220.83 42.713 221.707 43.3807 222.31 44.2548C222.919 45.1233 223.22 46.0733 223.22 47.1157C223.22 48.1688 222.902 49.1948 222.256 50.1883C221.62 51.1817 220.606 51.9743 219.229 52.5606C217.848 53.1523 215.968 53.4455 213.594 53.4455C210.239 53.4455 207.843 52.9732 206.423 52.0232C204.992 51.0569 204.077 49.7051 203.671 47.9625ZM225.326 47.9625L232.321 47.3057C232.611 48.1308 233.012 48.7225 233.532 49.0754C234.053 49.4337 234.744 49.6074 235.61 49.6074C236.553 49.6074 237.288 49.4065 237.808 49.0048C238.209 48.7117 238.411 48.3371 238.411 47.892C238.411 47.3871 238.143 47.0017 237.622 46.7302C237.238 46.5348 236.23 46.2959 234.59 46.0082C232.145 45.5793 230.44 45.1939 229.492 44.8302C228.544 44.4665 227.738 43.8585 227.085 43.0062C226.428 42.1539 226.104 41.1767 226.104 40.0747C226.104 38.875 226.46 37.8381 227.162 36.9749C227.864 36.1009 228.834 35.4549 230.068 35.0261C231.301 34.5972 232.957 34.38 235.034 34.38C237.227 34.38 238.845 34.5483 239.892 34.8795C240.939 35.2106 241.805 35.7264 242.501 36.4266C243.197 37.1215 243.778 38.0661 244.244 39.255L237.562 39.9118C237.386 39.3255 237.101 38.9021 236.696 38.6252C236.142 38.2561 235.473 38.077 234.689 38.077C233.9 38.077 233.313 38.2181 232.951 38.5004C232.584 38.7827 232.408 39.1193 232.408 39.521C232.408 39.9716 232.639 40.3027 233.099 40.5307C233.56 40.7587 234.563 40.965 236.114 41.1496C238.455 41.4156 240.199 41.7739 241.339 42.2462C242.485 42.713 243.362 43.3807 243.965 44.2548C244.573 45.1233 244.875 46.0733 244.875 47.1157C244.875 48.1688 244.557 49.1948 243.91 50.1883C243.274 51.1817 242.26 51.9743 240.884 52.5606C239.502 53.1523 237.622 53.4455 235.248 53.4455C231.893 53.4455 229.498 52.9732 228.078 52.0232C226.652 51.0569 225.731 49.7051 225.326 47.9625Z" fill="white" style="fill:white;fill-opacity:1;"/>
<path fill-rule="evenodd" clip-rule="evenodd" d="M68.0592 99.0787H55.4229V80.567C51.5141 81.7722 47.3642 82.4236 43.0552 82.4236C39.9743 82.4236 36.9756 82.0871 34.0865 81.4573V69.2863C36.9152 70.1766 39.9304 70.6543 43.0552 70.6543C53.559 70.6543 62.7909 65.2474 68.0592 57.0881V99.0787ZM13.3969 41.0139C13.545 24.918 26.7624 11.9109 43.0552 11.9109C53.5096 11.9109 62.6976 17.2636 67.9769 25.3577V8.36601C61.0366 3.20336 52.4022 0.141602 43.0552 0.141602C20.1125 0.141602 1.51172 18.561 1.51172 41.2799C1.51172 46.182 2.3779 50.8886 3.96771 55.2478L4.05543 55.4867L4.09379 55.5898C5.45336 59.2324 7.32276 62.6308 9.61429 65.6925C10.6888 67.1311 11.851 68.4937 13.0954 69.7803V69.7586C13.1941 69.8617 13.2983 69.9649 13.3969 70.0626V41.0139Z" fill="white" style="fill:white;fill-opacity:1;"/>
<path fill-rule="evenodd" clip-rule="evenodd" d="M73.2188 66.3059H80.0988V69.4111C80.7621 68.0702 81.4474 67.1419 82.1546 66.6317C82.8563 66.1268 83.728 65.8662 84.7641 65.8662C85.8495 65.8662 87.0337 66.2028 88.322 66.8651L86.0469 72.0549C85.1862 71.6966 84.4955 71.5174 83.9856 71.5174C83.0263 71.5174 82.2752 71.9137 81.7489 72.6955C80.9924 73.8083 80.6087 75.8821 80.6087 78.9221V85.2899H73.2188V66.3059ZM89.2649 75.8549C89.2649 72.9615 90.2517 70.5674 92.2253 68.6945C94.2043 66.8162 96.8686 65.8716 100.229 65.8716C104.072 65.8716 106.978 66.9791 108.935 69.1831C110.514 70.9583 111.303 73.1515 111.303 75.7518C111.303 78.6724 110.322 81.0664 108.37 82.9339C106.413 84.7959 103.71 85.7297 100.251 85.7297C97.1701 85.7297 94.6758 84.9534 92.7735 83.4008C90.4271 81.4844 89.2649 78.971 89.2649 75.8549ZM96.6329 75.8387C96.6329 77.5378 96.9782 78.7864 97.6745 79.5953C98.3652 80.4096 99.2369 80.8167 100.284 80.8167C101.342 80.8167 102.214 80.415 102.893 79.6116C103.579 78.8135 103.919 77.5378 103.919 75.7626C103.919 74.1178 103.573 72.8909 102.888 72.0875C102.203 71.2894 101.353 70.8823 100.339 70.8823C99.2643 70.8823 98.3762 71.2894 97.68 72.1037C96.9837 72.9235 96.6329 74.1721 96.6329 75.8387ZM135.063 85.3008H128.193V82.2227C127.168 83.4876 126.138 84.3888 125.096 84.9208C124.054 85.4582 122.772 85.7242 121.253 85.7242C119.23 85.7242 117.646 85.1271 116.495 83.9273C115.349 82.7276 114.773 80.8819 114.773 78.3901V66.3005H122.163V76.7507C122.163 77.9395 122.388 78.7918 122.826 79.2913C123.276 79.7907 123.901 80.0404 124.707 80.0404C125.589 80.0404 126.302 79.7038 126.867 79.0416C127.426 78.3684 127.706 77.1741 127.706 75.4424V66.3005H135.063V85.3008ZM139.558 92.5317V66.3059H146.438V69.1125C147.392 67.9291 148.263 67.1311 149.058 66.7131C150.133 66.1485 151.317 65.8716 152.616 65.8716C155.182 65.8716 157.166 66.8488 158.575 68.7923C159.973 70.7357 160.68 73.1406 160.68 76.0015C160.68 79.161 159.918 81.5713 158.389 83.2379C156.859 84.8991 154.924 85.7297 152.594 85.7297C151.46 85.7297 150.423 85.5396 149.491 85.1596C148.56 84.7742 147.721 84.2096 146.986 83.455V92.5263H139.558V92.5317ZM146.931 75.8549C146.931 77.3587 147.244 78.477 147.885 79.199C148.521 79.9264 149.327 80.2901 150.303 80.2901C151.158 80.2901 151.876 79.9427 152.457 79.2424C153.038 78.5475 153.329 77.3641 153.329 75.6921C153.329 74.1558 153.027 73.0266 152.424 72.3046C151.827 71.5772 151.087 71.2189 150.221 71.2189C149.278 71.2189 148.494 71.5826 147.869 72.31C147.238 73.0429 146.931 74.2263 146.931 75.8549Z" fill="white" style="fill:white;fill-opacity:1;"/>
</svg>
